RBDS05runT25_grf
version=1
nRows=34
nColumns=19
inDegrees=no
endheader
time	ground_force_r_vx	ground_force_r_vy	ground_force_r_vz	ground_force_r_px	ground_force_r_py	ground_force_r_pz	ground_force_r_mx	ground_force_r_my	ground_force_r_mz	ground_force_l_vx	ground_force_l_vy	ground_force_l_vz	ground_force_l_px	ground_force_l_py	ground_force_l_pz	ground_force_l_mx	ground_force_l_my	ground_force_l_mz
     22.49800000	    -34.69616830	    725.38526346	      8.47739596	      2.23966439	      0.00000000	      1.08240946	      0.00000000	      3.53259742	     -0.00000000	      0.00000000	      0.00000000	      0.00000000	      0.00000000	      0.00000000	      0.00000000	      0.00000000	      0.00000000	      0.00000000
     22.49900000	    -37.28547868	    739.22614135	      7.99450667	      2.23930634	      0.00000000	      1.08246352	      0.00000000	      3.39423763	     -0.00000000	      0.00000000	      0.00000000	      0.00000000	      0.00000000	      0.00000000	      0.00000000	      0.00000000	      0.00000000	      0.00000000
     22.50000000	    -39.87478905	    753.06701923	      7.51161737	      2.23894829	      0.00000000	      1.08251758	      0.00000000	      3.25587784	     -0.00000000	      0.00000000	      0.00000000	      0.00000000	      0.00000000	      0.00000000	      0.00000000	      0.00000000	      0.00000000	      0.00000000
     22.50100000	    -42.67731635	    765.86977534	      6.91926343	      2.23860548	      0.00000000	      1.08259606	      0.00000000	      3.13786239	     -0.00000000	      0.00000000	      0.00000000	      0.00000000	      0.00000000	      0.00000000	      0.00000000	      0.00000000	      0.00000000	      0.00000000
     22.50200000	    -45.47984364	    778.67253145	      6.32690950	      2.23826266	      0.00000000	      1.08267454	      0.00000000	      3.01984695	     -0.00000000	      0.00000000	      0.00000000	      0.00000000	      0.00000000	      0.00000000	      0.00000000	      0.00000000	      0.00000000	      0.00000000
     22.50300000	    -48.28237094	    791.47528756	      5.73455556	      2.23791984	      0.00000000	      1.08275302	      0.00000000	      2.90183151	     -0.00000000	      0.00000000	      0.00000000	      0.00000000	      0.00000000	      0.00000000	      0.00000000	      0.00000000	      0.00000000	      0.00000000
     22.50400000	    -51.17532720	    803.62318177	      5.07564188	      2.23757726	      0.00000000	      1.08284640	      0.00000000	      2.79659002	     -0.00000000	      0.00000000	      0.00000000	      0.00000000	      0.00000000	      0.00000000	      0.00000000	      0.00000000	      0.00000000	      0.00000000
     22.50500000	    -54.11349795	    815.44364504	      4.38344834	      2.23723479	      0.00000000	      1.08294723	      0.00000000	      2.69773551	     -0.00000000	      0.00000000	      0.00000000	      0.00000000	      0.00000000	      0.00000000	      0.00000000	      0.00000000	      0.00000000	      0.00000000
     22.50600000	    -57.05166870	    827.26410830	      3.69125479	      2.23689232	      0.00000000	      1.08304806	      0.00000000	      2.59888101	     -0.00000000	      0.00000000	      0.00000000	      0.00000000	      0.00000000	      0.00000000	      0.00000000	      0.00000000	      0.00000000	      0.00000000
     22.50700000	    -60.00660389	    838.77998544	      2.96965517	      2.23654453	      0.00000000	      1.08315545	      0.00000000	      2.50595370	     -0.00000000	      0.00000000	      0.00000000	      0.00000000	      0.00000000	      0.00000000	      0.00000000	      0.00000000	      0.00000000	      0.00000000
     22.50800000	    -62.99506796	    849.68669032	      2.18924338	      2.23618611	      0.00000000	      1.08327595	      0.00000000	      2.42488079	     -0.00000000	      0.00000000	      0.00000000	      0.00000000	      0.00000000	      0.00000000	      0.00000000	      0.00000000	      0.00000000	      0.00000000
     22.50900000	    -65.98353203	    860.59339519	      1.40883158	      2.23582768	      0.00000000	      1.08339644	      0.00000000	      2.34380788	     -0.00000000	      0.00000000	      0.00000000	      0.00000000	      0.00000000	      0.00000000	      0.00000000	      0.00000000	      0.00000000	      0.00000000
     22.51000000	    -68.97199610	    871.50010007	      0.62841979	      2.23546925	      0.00000000	      1.08351694	      0.00000000	      2.26273498	     -0.00000000	      0.00000000	      0.00000000	      0.00000000	      0.00000000	      0.00000000	      0.00000000	      0.00000000	      0.00000000	      0.00000000
     22.51100000	    -71.92146368	    881.56862601	     -0.22701680	      2.23507773	      0.00000000	      1.08365394	      0.00000000	      2.19792883	     -0.00000000	      0.00000000	      0.00000000	      0.00000000	      0.00000000	      0.00000000	      0.00000000	      0.00000000	      0.00000000	      0.00000000
     22.51200000	    -74.87093126	    891.63715196	     -1.08245340	      2.23468621	      0.00000000	      1.08379093	      0.00000000	      2.13312268	     -0.00000000	      0.00000000	      0.00000000	      0.00000000	      0.00000000	      0.00000000	      0.00000000	      0.00000000	      0.00000000	      0.00000000
     22.51300000	    -77.82039884	    901.70567790	     -1.93788999	      2.23429468	      0.00000000	      1.08392793	      0.00000000	      2.06831654	     -0.00000000	      0.00000000	      0.00000000	      0.00000000	      0.00000000	      0.00000000	      0.00000000	      0.00000000	      0.00000000	      0.00000000
     22.51400000	    -80.68435847	    911.26681744	     -2.83378989	      2.23386954	      0.00000000	      1.08407358	      0.00000000	      2.01329159	     -0.00000000	      0.00000000	      0.00000000	      0.00000000	      0.00000000	      0.00000000	      0.00000000	      0.00000000	      0.00000000	      0.00000000
     22.51500000	    -83.50556414	    920.57426378	     -3.74992145	      2.23342759	      0.00000000	      1.08422355	      0.00000000	      1.96315724	     -0.00000000	      0.00000000	      0.00000000	      0.00000000	      0.00000000	      0.00000000	      0.00000000	      0.00000000	      0.00000000	      0.00000000
     22.51600000	    -86.32676980	    929.88171012	     -4.66605301	      2.23298564	      0.00000000	      1.08437353	      0.00000000	      1.91302289	     -0.00000000	      0.00000000	      0.00000000	      0.00000000	      0.00000000	      0.00000000	      0.00000000	      0.00000000	      0.00000000	      0.00000000
     22.51700000	    -89.07676015	    938.95998811	     -5.59741062	      2.23252126	      0.00000000	      1.08452660	      0.00000000	      1.86723657	     -0.00000000	      0.00000000	      0.00000000	      0.00000000	      0.00000000	      0.00000000	      0.00000000	      0.00000000	      0.00000000	      0.00000000
     22.51800000	    -91.68431988	    947.57992941	     -6.55922035	      2.23201202	      0.00000000	      1.08468584	      0.00000000	      1.83014629	     -0.00000000	      0.00000000	      0.00000000	      0.00000000	      0.00000000	      0.00000000	      0.00000000	      0.00000000	      0.00000000	      0.00000000
     22.51900000	    -94.29187961	    956.19987071	     -7.52103008	      2.23150278	      0.00000000	      1.08484508	      0.00000000	      1.79305601	     -0.00000000	      0.00000000	      0.00000000	      0.00000000	      0.00000000	      0.00000000	      0.00000000	      0.00000000	      0.00000000	      0.00000000
     22.52000000	    -96.89943933	    964.81981200	     -8.48283981	      2.23099354	      0.00000000	      1.08500432	      0.00000000	      1.75596574	     -0.00000000	      0.00000000	      0.00000000	      0.00000000	      0.00000000	      0.00000000	      0.00000000	      0.00000000	      0.00000000	      0.00000000
     22.52100000	    -99.21537224	    972.81801758	     -9.47507698	      2.23040127	      0.00000000	      1.08516907	      0.00000000	      1.73029680	     -0.00000000	      0.00000000	      0.00000000	      0.00000000	      0.00000000	      0.00000000	      0.00000000	      0.00000000	      0.00000000	      0.00000000
     22.52200000	   -101.53130515	    980.81622316	    -10.46731415	      2.22980900	      0.00000000	      1.08533383	      0.00000000	      1.70462787	     -0.00000000	      0.00000000	      0.00000000	      0.00000000	      0.00000000	      0.00000000	      0.00000000	      0.00000000	      0.00000000	      0.00000000
     22.52300000	   -103.84723805	    988.81442874	    -11.45955132	      2.22921673	      0.00000000	      1.08549858	      0.00000000	      1.67895894	     -0.00000000	      0.00000000	      0.00000000	      0.00000000	      0.00000000	      0.00000000	      0.00000000	      0.00000000	      0.00000000	      0.00000000
     22.52400000	   -105.92369257	    996.43458035	    -12.46203919	      2.22855976	      0.00000000	      1.08566458	      0.00000000	      1.65984508	     -0.00000000	      0.00000000	      0.00000000	      0.00000000	      0.00000000	      0.00000000	      0.00000000	      0.00000000	      0.00000000	      0.00000000
     22.52500000	   -107.88040788	   1003.86570497	    -13.46965241	      2.22787044	      0.00000000	      1.08583121	      0.00000000	      1.64400876	     -0.00000000	      0.00000000	      0.00000000	      0.00000000	      0.00000000	      0.00000000	      0.00000000	      0.00000000	      0.00000000	      0.00000000
     22.52600000	   -109.83712319	   1011.29682959	    -14.47726563	      2.22718112	      0.00000000	      1.08599784	      0.00000000	      1.62817243	     -0.00000000	      0.00000000	      0.00000000	      0.00000000	      0.00000000	      0.00000000	      0.00000000	      0.00000000	      0.00000000	      0.00000000
     22.52700000	   -111.65579949	   1018.55270228	    -15.48518191	      2.22645553	      0.00000000	      1.08616397	      0.00000000	      1.61510293	     -0.00000000	      0.00000000	      0.00000000	      0.00000000	      0.00000000	      0.00000000	      0.00000000	      0.00000000	      0.00000000	      0.00000000
     22.52800000	   -113.19839774	   1025.45807111	    -16.49370432	      2.22565740	      0.00000000	      1.08632909	      0.00000000	      1.60756708	     -0.00000000	      0.00000000	      0.00000000	      0.00000000	      0.00000000	      0.00000000	      0.00000000	      0.00000000	      0.00000000	      0.00000000
     22.52900000	   -114.74099600	   1032.36343995	    -17.50222673	      2.22485927	      0.00000000	      1.08649422	      0.00000000	      1.60003123	     -0.00000000	      0.00000000	      0.00000000	      0.00000000	      0.00000000	      0.00000000	      0.00000000	      0.00000000	      0.00000000	      0.00000000
     22.53000000	   -116.28359425	   1039.26880879	    -18.51074913	      2.22406113	      0.00000000	      1.08665934	      0.00000000	      1.59249537	     -0.00000000	      0.00000000	      0.00000000	      0.00000000	      0.00000000	      0.00000000	      0.00000000	      0.00000000	      0.00000000	      0.00000000
     22.53100000	   -117.37139123	   1045.67533521	    -19.50661231	      2.22314509	      0.00000000	      1.08681996	      0.00000000	      1.59180319	     -0.00000000	      0.00000000	      0.00000000	      0.00000000	      0.00000000	      0.00000000	      0.00000000	      0.00000000	      0.00000000	      0.00000000
